<svg id="SvgjsSvg1006" width="1118.796875" height="1019.375" xmlns="http://www.w3.org/2000/svg" version="1.1" xmlns:xlink="http://www.w3.org/1999/xlink" xmlns:svgjs="http://svgjs.com/svgjs"><defs id="SvgjsDefs1007"><marker id="SvgjsMarker1040" markerWidth="14" markerHeight="10" refX="10" refY="5" viewBox="0 0 14 10" orient="auto" markerUnits="userSpaceOnUse" stroke-dasharray="0,0"><path id="SvgjsPath1041" d="M0,0 L14,5 L0,10 L0,0" fill="#323232" stroke="#323232" stroke-width="1"></path></marker><marker id="SvgjsMarker1064" markerWidth="14" markerHeight="10" refX="10" refY="5" viewBox="0 0 14 10" orient="auto" markerUnits="userSpaceOnUse" stroke-dasharray="0,0"><path id="SvgjsPath1065" d="M0,0 L14,5 L0,10 L0,0" fill="#323232" stroke="#323232" stroke-width="1"></path></marker><marker id="SvgjsMarker1138" markerWidth="14" markerHeight="10" refX="10" refY="5" viewBox="0 0 14 10" orient="auto" markerUnits="userSpaceOnUse" stroke-dasharray="0,0"><path id="SvgjsPath1139" d="M0,0 L14,5 L0,10 L0,0" fill="#323232" stroke="#323232" stroke-width="1"></path></marker><marker id="SvgjsMarker1142" markerWidth="14" markerHeight="10" refX="10" refY="5" viewBox="0 0 14 10" orient="auto" markerUnits="userSpaceOnUse" stroke-dasharray="0,0"><path id="SvgjsPath1143" d="M0,0 L14,5 L0,10 L0,0" fill="#323232" stroke="#323232" stroke-width="1"></path></marker><marker id="SvgjsMarker1146" markerWidth="14" markerHeight="10" refX="10" refY="5" viewBox="0 0 14 10" orient="auto" markerUnits="userSpaceOnUse" stroke-dasharray="0,0"><path id="SvgjsPath1147" d="M0,0 L14,5 L0,10 L0,0" fill="#323232" stroke="#323232" stroke-width="1"></path></marker><marker id="SvgjsMarker1150" markerWidth="14" markerHeight="10" refX="10" refY="5" viewBox="0 0 14 10" orient="auto" markerUnits="userSpaceOnUse" stroke-dasharray="0,0"><path id="SvgjsPath1151" d="M0,0 L14,5 L0,10 L0,0" fill="#323232" stroke="#323232" stroke-width="1"></path></marker><marker id="SvgjsMarker1154" markerWidth="14" markerHeight="10" refX="10" refY="5" viewBox="0 0 14 10" orient="auto" markerUnits="userSpaceOnUse" stroke-dasharray="0,0"><path id="SvgjsPath1155" d="M0,0 L14,5 L0,10 L0,0" fill="#323232" stroke="#323232" stroke-width="1"></path></marker><marker id="SvgjsMarker1172" markerWidth="14" markerHeight="10" refX="10" refY="5" viewBox="0 0 14 10" orient="auto" markerUnits="userSpaceOnUse" stroke-dasharray="0,0"><path id="SvgjsPath1173" d="M0,0 L14,5 L0,10 L0,0" fill="#323232" stroke="#323232" stroke-width="1"></path></marker><marker id="SvgjsMarker1188" markerWidth="14" markerHeight="10" refX="10" refY="5" viewBox="0 0 14 10" orient="auto" markerUnits="userSpaceOnUse" stroke-dasharray="0,0"><path id="SvgjsPath1189" d="M0,0 L14,5 L0,10 L0,0" fill="#323232" stroke="#323232" stroke-width="1"></path></marker><marker id="SvgjsMarker1192" markerWidth="14" markerHeight="10" refX="10" refY="5" viewBox="0 0 14 10" orient="auto" markerUnits="userSpaceOnUse" stroke-dasharray="0,0"><path id="SvgjsPath1193" d="M0,0 L14,5 L0,10 L0,0" fill="#323232" stroke="#323232" stroke-width="1"></path></marker></defs><g id="SvgjsG1008" transform="translate(280.82339015151524,827.3776041666664)"><path id="SvgjsPath1009" d="M 0 0L 254 0L 254 58L 0 58Z" stroke="rgba(50,50,50,1)" stroke-width="2" fill-opacity="1" fill="#ffffff"></path><g id="SvgjsG1010"><text id="SvgjsText1011" font-family="微软雅黑" text-anchor="middle" font-size="13px" width="234px" fill="#323232" font-weight="400" align="middle" lineHeight="125%" anchor="middle" family="微软雅黑" size="13px" weight="400" font-style="" opacity="1" y="17.875" transform="rotate(0)"><tspan id="SvgjsTspan1012" dy="16" x="127"><tspan id="SvgjsTspan1013" style="text-decoration:;">DefaultGatewayFilterChain#filter</tspan></tspan></text></g></g><g id="SvgjsG1014" transform="translate(25.005208333333343,827.3776041666666)"><path id="SvgjsPath1015" d="M 0 0L 223 0L 239 16L 239 58L 0 58L 0 0Z" stroke="none" fill-opacity="1" fill="#ffffaa"></path><path id="SvgjsPath1016" d="M 223 0L 223 16L 239 16Z" stroke="none" fill-opacity="1" fill="#cdcdcd"></path><path id="SvgjsPath1017" d="M 0 0L 223 0L 239 16L 239 58L 0 58L 0 0Z" stroke="none" fill="none"></path><g id="SvgjsG1018"><text id="SvgjsText1019" font-family="微软雅黑" text-anchor="middle" font-size="13px" width="219px" fill="#323232" font-weight="400" align="middle" lineHeight="125%" anchor="middle" family="微软雅黑" size="13px" weight="400" font-style="" opacity="1" y="17.875" transform="rotate(0)"><tspan id="SvgjsTspan1020" dy="16" x="119.5"><tspan id="SvgjsTspan1021" style="text-decoration:;">执行所有的GatewayFilter</tspan></tspan></text></g></g><g id="SvgjsG1022" transform="translate(280.82339015151524,725.3776041666664)"><path id="SvgjsPath1023" d="M 0 0L 254 0L 254 58L 0 58Z" stroke="rgba(50,50,50,1)" stroke-width="2" fill-opacity="1" fill="#ffffff"></path><g id="SvgjsG1024"><text id="SvgjsText1025" font-family="微软雅黑" text-anchor="middle" font-size="13px" width="234px" fill="#323232" font-weight="400" align="middle" lineHeight="125%" anchor="middle" family="微软雅黑" size="13px" weight="400" font-style="" opacity="1" y="9.875" transform="rotate(0)"><tspan id="SvgjsTspan1026" dy="16" x="127"><tspan id="SvgjsTspan1027" style="text-decoration:;">org.springframework.cloud.gateway.ha</tspan></tspan><tspan id="SvgjsTspan1028" dy="16" x="127"><tspan id="SvgjsTspan1029" style="text-decoration:;">ndler.FilteringWebHandler#handle</tspan></tspan></text></g></g><g id="SvgjsG1030" transform="translate(25.005208333333343,725.3776041666666)"><path id="SvgjsPath1031" d="M 0 0L 223 0L 239 16L 239 58L 0 58L 0 0Z" stroke="none" fill-opacity="1" fill="#ffffaa"></path><path id="SvgjsPath1032" d="M 223 0L 223 16L 239 16Z" stroke="none" fill-opacity="1" fill="#cdcdcd"></path><path id="SvgjsPath1033" d="M 0 0L 223 0L 239 16L 239 58L 0 58L 0 0Z" stroke="none" fill="none"></path><g id="SvgjsG1034"><text id="SvgjsText1035" font-family="微软雅黑" text-anchor="middle" font-size="13px" width="219px" fill="#323232" font-weight="400" align="middle" lineHeight="125%" anchor="middle" family="微软雅黑" size="13px" weight="400" font-style="" opacity="1" y="17.875" transform="rotate(0)"><tspan id="SvgjsTspan1036" dy="16" x="119.5"><tspan id="SvgjsTspan1037" style="text-decoration:;">组装DefaultGatewayFilterChain</tspan></tspan></text></g></g><g id="SvgjsG1038"><path id="SvgjsPath1039" d="M407.82339015151524 784.3776041666664L407.82339015151524 805.3776041666664L407.82339015151524 805.3776041666664L407.82339015151524 823.7776041666664" stroke="#323232" stroke-width="2" fill="none" marker-end="url(#SvgjsMarker1040)"></path></g><g id="SvgjsG1042" transform="translate(280.82339015151524,619.3776041666664)"><path id="SvgjsPath1043" d="M 0 0L 254 0L 254 58L 0 58Z" stroke="rgba(50,50,50,1)" stroke-width="2" fill-opacity="1" fill="#ffffff"></path><g id="SvgjsG1044"><text id="SvgjsText1045" font-family="微软雅黑" text-anchor="middle" font-size="13px" width="234px" fill="#323232" font-weight="400" align="middle" lineHeight="125%" anchor="middle" family="微软雅黑" size="13px" weight="400" font-style="" opacity="1" y="17.875" transform="rotate(0)"><tspan id="SvgjsTspan1046" dy="16" x="127"><tspan id="SvgjsTspan1047" style="text-decoration:;">SimpleHandlerAdapter#handle</tspan></tspan></text></g></g><g id="SvgjsG1048" transform="translate(25.005208333333343,619.3776041666666)"><path id="SvgjsPath1049" d="M 0 0L 223 0L 239 16L 239 58L 0 58L 0 0Z" stroke="none" fill-opacity="1" fill="#ffffaa"></path><path id="SvgjsPath1050" d="M 223 0L 223 16L 239 16Z" stroke="none" fill-opacity="1" fill="#cdcdcd"></path><path id="SvgjsPath1051" d="M 0 0L 223 0L 239 16L 239 58L 0 58L 0 0Z" stroke="none" fill="none"></path><g id="SvgjsG1052"><text id="SvgjsText1053" font-family="微软雅黑" text-anchor="middle" font-size="13px" width="219px" fill="#323232" font-weight="400" align="middle" lineHeight="125%" anchor="middle" family="微软雅黑" size="13px" weight="400" font-style="" opacity="1" y="17.875" transform="rotate(0)"><tspan id="SvgjsTspan1054" dy="16" x="119.5"><tspan id="SvgjsTspan1055" style="text-decoration:;">Handler适配器执行Handler</tspan></tspan></text></g></g><g id="SvgjsG1056" transform="translate(280.82339015151524,382.37760416666646)"><path id="SvgjsPath1057" d="M 0 0L 254 0L 254 58L 0 58Z" stroke="rgba(50,50,50,1)" stroke-width="2" fill-opacity="1" fill="#ffffff"></path><g id="SvgjsG1058"><text id="SvgjsText1059" font-family="微软雅黑" text-anchor="middle" font-size="13px" width="234px" fill="#323232" font-weight="400" align="middle" lineHeight="125%" anchor="middle" family="微软雅黑" size="13px" weight="400" font-style="" opacity="1" y="17.875" transform="rotate(0)"><tspan id="SvgjsTspan1060" dy="16" x="127"><tspan id="SvgjsTspan1061" style="text-decoration:;">DispatcherHandler#handle</tspan></tspan></text></g></g><g id="SvgjsG1062"><path id="SvgjsPath1063" d="M407.82339015151524 678.3776041666664L407.82339015151524 701.3776041666664L407.82339015151524 701.3776041666664L407.82339015151524 721.7776041666664" stroke="#323232" stroke-width="2" fill="none" marker-end="url(#SvgjsMarker1064)"></path></g><g id="SvgjsG1066" transform="translate(25.005208333333343,382.3776041666667)"><path id="SvgjsPath1067" d="M 0 0L 223 0L 239 16L 239 58L 0 58L 0 0Z" stroke="none" fill-opacity="1" fill="#ffffaa"></path><path id="SvgjsPath1068" d="M 223 0L 223 16L 239 16Z" stroke="none" fill-opacity="1" fill="#cdcdcd"></path><path id="SvgjsPath1069" d="M 0 0L 223 0L 239 16L 239 58L 0 58L 0 0Z" stroke="none" fill="none"></path><g id="SvgjsG1070"><text id="SvgjsText1071" font-family="微软雅黑" text-anchor="middle" font-size="13px" width="219px" fill="#323232" font-weight="400" align="middle" lineHeight="125%" anchor="middle" family="微软雅黑" size="13px" weight="400" font-style="" opacity="1" y="17.875" transform="rotate(0)"><tspan id="SvgjsTspan1072" dy="16" x="119.5"><tspan id="SvgjsTspan1073" style="text-decoration:;">类比DispatchServlet</tspan></tspan></text></g></g><g id="SvgjsG1074" transform="translate(280.82339015151524,25.00260416666646)"><path id="SvgjsPath1075" d="M 0 0L 254 0L 254 58L 0 58Z" stroke="rgba(50,50,50,1)" stroke-width="2" fill-opacity="1" fill="#ffffff"></path><g id="SvgjsG1076"><text id="SvgjsText1077" font-family="微软雅黑" text-anchor="middle" font-size="13px" width="234px" fill="#323232" font-weight="400" align="middle" lineHeight="125%" anchor="middle" family="微软雅黑" size="13px" weight="400" font-style="" opacity="1" y="17.875" transform="rotate(0)"><tspan id="SvgjsTspan1078" dy="16" x="127"><tspan id="SvgjsTspan1079" style="text-decoration:;">HttpWebHandlerAdapter#handle</tspan></tspan></text></g></g><g id="SvgjsG1080" transform="translate(280.82339015151524,263.25260416666646)"><path id="SvgjsPath1081" d="M 0 0L 254 0L 254 58L 0 58Z" stroke="rgba(50,50,50,1)" stroke-width="2" fill-opacity="1" fill="#ffffff"></path><g id="SvgjsG1082"><text id="SvgjsText1083" font-family="微软雅黑" text-anchor="middle" font-size="13px" width="234px" fill="#323232" font-weight="400" align="middle" lineHeight="125%" anchor="middle" family="微软雅黑" size="13px" weight="400" font-style="" opacity="1" y="9.875" transform="rotate(0)"><tspan id="SvgjsTspan1084" dy="16" x="127"><tspan id="SvgjsTspan1085" style="text-decoration:;">org.springframework.web.server.handl</tspan></tspan><tspan id="SvgjsTspan1086" dy="16" x="127"><tspan id="SvgjsTspan1087" style="text-decoration:;">er.FilteringWebHandler#handle</tspan></tspan></text></g></g><g id="SvgjsG1088" transform="translate(280.82339015151524,144.12760416666646)"><path id="SvgjsPath1089" d="M 0 0L 254 0L 254 58L 0 58Z" stroke="rgba(50,50,50,1)" stroke-width="2" fill-opacity="1" fill="#ffffff"></path><g id="SvgjsG1090"><text id="SvgjsText1091" font-family="微软雅黑" text-anchor="middle" font-size="13px" width="234px" fill="#323232" font-weight="400" align="middle" lineHeight="125%" anchor="middle" family="微软雅黑" size="13px" weight="400" font-style="" opacity="1" y="1.875" transform="rotate(0)"><tspan id="SvgjsTspan1092" dy="16" x="127"><tspan id="SvgjsTspan1093" style="text-decoration:;">org.springframework.web.server.handl</tspan></tspan><tspan id="SvgjsTspan1094" dy="16" x="127"><tspan id="SvgjsTspan1095" style="text-decoration:;">er.ExceptionHandlingWebHandler#han</tspan></tspan><tspan id="SvgjsTspan1096" dy="16" x="127"><tspan id="SvgjsTspan1097" style="text-decoration:;">dle</tspan></tspan></text></g></g><g id="SvgjsG1098" transform="translate(25.005208333333343,144.12760416666669)"><path id="SvgjsPath1099" d="M 0 0L 223 0L 239 16L 239 58L 0 58L 0 0Z" stroke="none" fill-opacity="1" fill="#ffffaa"></path><path id="SvgjsPath1100" d="M 223 0L 223 16L 239 16Z" stroke="none" fill-opacity="1" fill="#cdcdcd"></path><path id="SvgjsPath1101" d="M 0 0L 223 0L 239 16L 239 58L 0 58L 0 0Z" stroke="none" fill="none"></path><g id="SvgjsG1102"><text id="SvgjsText1103" font-family="微软雅黑" text-anchor="middle" font-size="13px" width="219px" fill="#323232" font-weight="400" align="middle" lineHeight="125%" anchor="middle" family="微软雅黑" size="13px" weight="400" font-style="" opacity="1" y="9.875" transform="rotate(0)"><tspan id="SvgjsTspan1104" dy="16" x="119.5"><tspan id="SvgjsTspan1105" style="text-decoration:;">WebExceptionHandler处理全局异常, </tspan></tspan><tspan id="SvgjsTspan1106" dy="16" x="119.5"><tspan id="SvgjsTspan1107" style="text-decoration:;">委托FilteringWebHandler执行handler</tspan></tspan></text></g></g><g id="SvgjsG1108" transform="translate(25.005208333333343,263.2526041666667)"><path id="SvgjsPath1109" d="M 0 0L 223 0L 239 16L 239 58L 0 58L 0 0Z" stroke="none" fill-opacity="1" fill="#ffffaa"></path><path id="SvgjsPath1110" d="M 223 0L 223 16L 239 16Z" stroke="none" fill-opacity="1" fill="#cdcdcd"></path><path id="SvgjsPath1111" d="M 0 0L 223 0L 239 16L 239 58L 0 58L 0 0Z" stroke="none" fill="none"></path><g id="SvgjsG1112"><text id="SvgjsText1113" font-family="微软雅黑" text-anchor="middle" font-size="13px" width="219px" fill="#323232" font-weight="400" align="middle" lineHeight="125%" anchor="middle" family="微软雅黑" size="13px" weight="400" font-style="" opacity="1" y="17.875" transform="rotate(0)"><tspan id="SvgjsTspan1114" dy="16" x="119.5"><tspan id="SvgjsTspan1115" style="text-decoration:;">执行WebFilter</tspan></tspan></text></g></g><g id="SvgjsG1116" transform="translate(280.82339015151524,500.8776041666664)"><path id="SvgjsPath1117" d="M 0 0L 254 0L 254 58L 0 58Z" stroke="rgba(50,50,50,1)" stroke-width="2" fill-opacity="1" fill="#ffffff"></path><g id="SvgjsG1118"><text id="SvgjsText1119" font-family="微软雅黑" text-anchor="middle" font-size="13px" width="234px" fill="#323232" font-weight="400" align="middle" lineHeight="125%" anchor="middle" family="微软雅黑" size="13px" weight="400" font-style="" opacity="1" y="9.875" transform="rotate(0)"><tspan id="SvgjsTspan1120" dy="16" x="127"><tspan id="SvgjsTspan1121" style="text-decoration:;">RoutePredicateHandlerMapping#getH</tspan></tspan><tspan id="SvgjsTspan1122" dy="16" x="127"><tspan id="SvgjsTspan1123" style="text-decoration:;">andlerInternal</tspan></tspan></text></g></g><g id="SvgjsG1124" transform="translate(25.005208333333343,500.87760416666663)"><path id="SvgjsPath1125" d="M 0 0L 223 0L 239 16L 239 58L 0 58L 0 0Z" stroke="none" fill-opacity="1" fill="#ffffaa"></path><path id="SvgjsPath1126" d="M 223 0L 223 16L 239 16Z" stroke="none" fill-opacity="1" fill="#cdcdcd"></path><path id="SvgjsPath1127" d="M 0 0L 223 0L 239 16L 239 58L 0 58L 0 0Z" stroke="none" fill="none"></path><g id="SvgjsG1128"><text id="SvgjsText1129" font-family="微软雅黑" text-anchor="middle" font-size="13px" width="219px" fill="#323232" font-weight="400" align="middle" lineHeight="125%" anchor="middle" family="微软雅黑" size="13px" weight="400" font-style="" opacity="1" y="1.875" transform="rotate(0)"><tspan id="SvgjsTspan1130" dy="16" x="119.5"><tspan id="SvgjsTspan1131" style="text-decoration:;">根据请求匹配Route，返回</tspan></tspan><tspan id="SvgjsTspan1132" dy="16" x="119.5"><tspan id="SvgjsTspan1133" style="text-decoration:;">org.springframework.cloud.gateway.</tspan></tspan><tspan id="SvgjsTspan1134" dy="16" x="119.5"><tspan id="SvgjsTspan1135" style="text-decoration:;">handler.FilteringWebHandler</tspan></tspan></text></g></g><g id="SvgjsG1136"><path id="SvgjsPath1137" d="M407.82339015151524 84.00260416666646L407.82339015151524 113.56510416666646L407.82339015151524 113.56510416666646L407.82339015151524 140.52760416666646" stroke="#323232" stroke-width="2" fill="none" marker-end="url(#SvgjsMarker1138)"></path></g><g id="SvgjsG1140"><path id="SvgjsPath1141" d="M407.82339015151524 203.12760416666646L407.82339015151524 232.69010416666646L407.82339015151524 232.69010416666646L407.82339015151524 259.65260416666644" stroke="#323232" stroke-width="2" fill="none" marker-end="url(#SvgjsMarker1142)"></path></g><g id="SvgjsG1144"><path id="SvgjsPath1145" d="M407.82339015151524 322.25260416666646L407.82339015151524 351.81510416666646L407.82339015151524 351.81510416666646L407.82339015151524 378.77760416666644" stroke="#323232" stroke-width="2" fill="none" marker-end="url(#SvgjsMarker1146)"></path></g><g id="SvgjsG1148"><path id="SvgjsPath1149" d="M407.82339015151524 441.3776041666664L407.82339015151524 470.6276041666664L407.82339015151524 470.6276041666664L407.82339015151524 497.2776041666664" stroke="#323232" stroke-width="2" fill="none" marker-end="url(#SvgjsMarker1150)"></path></g><g id="SvgjsG1152"><path id="SvgjsPath1153" d="M407.82339015151524 559.8776041666664L407.82339015151524 589.1276041666664L407.82339015151524 589.1276041666664L407.82339015151524 615.7776041666664" stroke="#323232" stroke-width="2" fill="none" marker-end="url(#SvgjsMarker1154)"></path></g><g id="SvgjsG1156" transform="translate(280.82339015151524,936.3776041666665)"><path id="SvgjsPath1157" d="M 0 0L 254 0L 254 58L 0 58Z" stroke="rgba(50,50,50,1)" stroke-width="2" fill-opacity="1" fill="#ffffff"></path><g id="SvgjsG1158"><text id="SvgjsText1159" font-family="微软雅黑" text-anchor="middle" font-size="13px" width="234px" fill="#323232" font-weight="400" align="middle" lineHeight="125%" anchor="middle" family="微软雅黑" size="13px" weight="400" font-style="" opacity="1" y="17.875" transform="rotate(0)"><tspan id="SvgjsTspan1160" dy="16" x="127"><tspan id="SvgjsTspan1161" style="text-decoration:;">DispatcherHandler#handleResult</tspan></tspan></text></g></g><g id="SvgjsG1162" transform="translate(25.005208333333343,936.3776041666665)"><path id="SvgjsPath1163" d="M 0 0L 223 0L 239 16L 239 58L 0 58L 0 0Z" stroke="none" fill-opacity="1" fill="#ffffaa"></path><path id="SvgjsPath1164" d="M 223 0L 223 16L 239 16Z" stroke="none" fill-opacity="1" fill="#cdcdcd"></path><path id="SvgjsPath1165" d="M 0 0L 223 0L 239 16L 239 58L 0 58L 0 0Z" stroke="none" fill="none"></path><g id="SvgjsG1166"><text id="SvgjsText1167" font-family="微软雅黑" text-anchor="middle" font-size="13px" width="219px" fill="#323232" font-weight="400" align="middle" lineHeight="125%" anchor="middle" family="微软雅黑" size="13px" weight="400" font-style="" opacity="1" y="17.875" transform="rotate(0)"><tspan id="SvgjsTspan1168" dy="16" x="119.5"><tspan id="SvgjsTspan1169" style="text-decoration:;">响应客户端</tspan></tspan></text></g></g><g id="SvgjsG1170"><path id="SvgjsPath1171" d="M407.82339015151524 886.3776041666664L407.82339015151524 910.8776041666665L407.82339015151524 910.8776041666665L407.82339015151524 932.7776041666666" stroke="#323232" stroke-width="2" fill="none" marker-end="url(#SvgjsMarker1172)"></path></g><g id="SvgjsG1174" transform="translate(582.5506628787869,827.3776041666664)"><path id="SvgjsPath1175" d="M 0 0L 254 0L 254 58L 0 58Z" stroke="rgba(50,50,50,1)" stroke-width="2" fill-opacity="1" fill="#ffffff"></path><g id="SvgjsG1176"><text id="SvgjsText1177" font-family="微软雅黑" text-anchor="middle" font-size="13px" width="234px" fill="#323232" font-weight="400" align="middle" lineHeight="125%" anchor="middle" family="微软雅黑" size="13px" weight="400" font-style="" opacity="1" y="17.875" transform="rotate(0)"><tspan id="SvgjsTspan1178" dy="16" x="127"><tspan id="SvgjsTspan1179" style="text-decoration:;">RouteToRequestUrlFilter#filter</tspan></tspan></text></g></g><g id="SvgjsG1180" transform="translate(582.5506628787869,936.3776041666665)"><path id="SvgjsPath1181" d="M 0 0L 254 0L 254 58L 0 58Z" stroke="rgba(50,50,50,1)" stroke-width="2" fill-opacity="1" fill="#ffffff"></path><g id="SvgjsG1182"><text id="SvgjsText1183" font-family="微软雅黑" text-anchor="middle" font-size="13px" width="234px" fill="#323232" font-weight="400" align="middle" lineHeight="125%" anchor="middle" family="微软雅黑" size="13px" weight="400" font-style="" opacity="1" y="17.875" transform="rotate(0)"><tspan id="SvgjsTspan1184" dy="16" x="127"><tspan id="SvgjsTspan1185" style="text-decoration:;">LoadBalancerClientFilter#filter</tspan></tspan></text></g></g><g id="SvgjsG1186"><path id="SvgjsPath1187" d="M535.8233901515152 856.3776041666664L558.687026515151 856.3776041666664L558.687026515151 856.3776041666664L578.9506628787868 856.3776041666664" stroke="#323232" stroke-width="2" fill="none" marker-end="url(#SvgjsMarker1188)"></path></g><g id="SvgjsG1190"><path id="SvgjsPath1191" d="M709.5506628787869 886.3776041666664L709.5506628787869 910.8776041666665L709.5506628787869 910.8776041666665L709.5506628787869 932.7776041666666" stroke="#323232" stroke-width="2" fill="none" marker-end="url(#SvgjsMarker1192)"></path></g><g id="SvgjsG1194" transform="translate(854.804251395532,827.3776041666664)"><path id="SvgjsPath1195" d="M 0 0L 223 0L 239 16L 239 58L 0 58L 0 0Z" stroke="none" fill-opacity="1" fill="#ffffaa"></path><path id="SvgjsPath1196" d="M 223 0L 223 16L 239 16Z" stroke="none" fill-opacity="1" fill="#cdcdcd"></path><path id="SvgjsPath1197" d="M 0 0L 223 0L 239 16L 239 58L 0 58L 0 0Z" stroke="none" fill="none"></path><g id="SvgjsG1198"><text id="SvgjsText1199" font-family="微软雅黑" text-anchor="middle" font-size="13px" width="219px" fill="#323232" font-weight="400" align="middle" lineHeight="125%" anchor="middle" family="微软雅黑" size="13px" weight="400" font-style="" opacity="1" y="9.875" transform="rotate(0)"><tspan id="SvgjsTspan1200" dy="16" x="119.5"><tspan id="SvgjsTspan1201" style="text-decoration:;">用Route里的Schema、Host、Port替</tspan></tspan><tspan id="SvgjsTspan1202" dy="16" x="119.5"><tspan id="SvgjsTspan1203" style="text-decoration:;">换原始请求URL</tspan></tspan></text></g></g><g id="SvgjsG1204" transform="translate(854.8042513955319,936.3776041666665)"><path id="SvgjsPath1205" d="M 0 0L 223 0L 239 16L 239 58L 0 58L 0 0Z" stroke="none" fill-opacity="1" fill="#ffffaa"></path><path id="SvgjsPath1206" d="M 223 0L 223 16L 239 16Z" stroke="none" fill-opacity="1" fill="#cdcdcd"></path><path id="SvgjsPath1207" d="M 0 0L 223 0L 239 16L 239 58L 0 58L 0 0Z" stroke="none" fill="none"></path><g id="SvgjsG1208"><text id="SvgjsText1209" font-family="微软雅黑" text-anchor="middle" font-size="13px" width="219px" fill="#323232" font-weight="400" align="middle" lineHeight="125%" anchor="middle" family="微软雅黑" size="13px" weight="400" font-style="" opacity="1" y="17.875" transform="rotate(0)"><tspan id="SvgjsTspan1210" dy="16" x="119.5"><tspan id="SvgjsTspan1211" style="text-decoration:;">利用Ribbon负载均衡重构URL</tspan></tspan></text></g></g></svg>